<svg preserveAspectRatio="none" width="100%" height="100%" overflow="visible" style="display: block;" viewBox="0 0 49.8804 48.5172" fill="none" xmlns="http://www.w3.org/2000/svg">
<path id="Subtract" d="M39.2809 0.00581222C42.1003 0.114267 44.6441 1.49729 46.5221 3.52534C51.1916 8.56819 50.3611 15.0063 47.8385 20.8222C43.8839 29.9398 37.0162 37.1869 29.8327 43.8798C28.2365 45.367 26.7857 46.4427 25.5094 48.2959C24.9441 49.1111 22.611 47.4442 21.9372 47.0029C17.8821 44.3471 14.5781 40.6945 11.4625 37.0126C8.03374 32.8468 4.8221 28.1834 2.42055 23.333C1.90287 22.38 1.6577 21.1956 1.20961 20.2353C-2.09623 13.1518 1.51133 3.20293 10.3522 3.48921C15.9632 3.67105 20.4436 6.76124 22.8317 11.8886C23.4779 13.2761 24.2005 14.6524 25.0944 15.9355C25.9845 9.65796 30.9271 0.838343 37.8571 0.0497575C38.3302 0.00497459 38.8059 -0.00930596 39.2809 0.00581222ZM43.9293 7.30659C42.5875 5.59327 40.6311 4.13133 38.3327 4.35445C33.0606 4.80395 29.2161 11.7743 27.985 16.3486C26.9436 20.2183 25.2849 25.7299 23.2467 18.0849C21.9472 13.5775 20.3666 10.3483 16.2545 7.83101C10.1515 4.09494 4.04951 7.31971 4.5475 14.6113C4.72072 17.1475 5.10928 17.4108 5.86977 19.7089C7.23759 23.8424 9.24795 27.0228 11.5192 30.6416C14.6403 35.0016 17.5882 38.8858 21.5309 42.581C22.919 43.882 23.3916 44.5544 25.1041 45.6416C26.4269 44.6302 27.3806 43.6022 28.5553 42.4648C31.7902 39.3224 34.6588 36.0971 37.2399 32.3896C39.7078 28.8447 42.4275 24.9927 44.0622 20.958C45.7468 16.7999 46.9335 11.1428 43.9293 7.30659Z" fill="#E4CCAE"/>
</svg>
