<svg preserveAspectRatio="xMidYMid meet" width="100%" height="100%" overflow="visible" style="display: block;" viewBox="0 0 15.1249 18" fill="none" xmlns="http://www.w3.org/2000/svg">
<g id="Group">
<path id="Vector" d="M15.1055 4.63468C15.0963 4.14871 15.0874 3.68961 15.0874 3.24547C15.0874 3.07837 15.0211 2.91812 14.9029 2.79996C14.7847 2.6818 14.6245 2.61543 14.4574 2.61543C11.7629 2.61543 9.71138 1.84106 8.00135 0.178406C7.88376 0.0640072 7.72618 0 7.56212 0C7.39807 0 7.24049 0.0640072 7.1229 0.178406C5.41304 1.84106 3.36186 2.61543 0.667528 2.61543C0.500429 2.61543 0.340174 2.6818 0.222018 2.79996C0.103861 2.91812 0.0374815 3.07837 0.0374815 3.24547C0.0374815 3.6897 0.0287448 4.14896 0.0194201 4.63502C-0.0669382 9.15757 -0.185218 15.3514 7.35576 17.9653C7.4894 18.0116 7.63476 18.0116 7.7684 17.9653C15.31 15.3513 15.1919 9.15732 15.1055 4.63468ZM7.56216 16.7014C1.09478 14.352 1.19257 9.20537 1.27934 4.65904C1.28455 4.38619 1.28959 4.12174 1.29312 3.8625C3.81667 3.75598 5.83466 2.99127 7.56216 1.48638C9.28983 2.99127 11.3082 3.75606 13.8319 3.8625C13.8354 4.12166 13.8404 4.38594 13.8457 4.65862C13.9324 9.20512 14.03 14.3519 7.56216 16.7014Z" fill="var(--fill-0, #696565)"/>
<path id="Vector_2" d="M9.73179 6.81136L6.69085 9.85214L5.39321 8.55449C5.27438 8.43962 5.11517 8.37604 4.9499 8.37744C4.78463 8.37885 4.62653 8.44513 4.50967 8.562C4.39281 8.67888 4.32654 8.83698 4.32515 9.00225C4.32376 9.16752 4.38736 9.32672 4.50224 9.44555L6.24537 11.1887C6.30381 11.2473 6.37325 11.2937 6.4497 11.3254C6.52615 11.357 6.60811 11.3733 6.69085 11.3732C6.7736 11.3733 6.85555 11.357 6.932 11.3254C7.00845 11.2937 7.07789 11.2473 7.13634 11.1887L10.6227 7.70242C10.6812 7.64393 10.7276 7.57449 10.7593 7.49805C10.791 7.42162 10.8073 7.33969 10.8073 7.25695C10.8073 7.17421 10.791 7.09228 10.7593 7.01584C10.7277 6.9394 10.6813 6.86995 10.6228 6.81145C10.5046 6.6933 10.3444 6.62691 10.1773 6.6269C10.0102 6.62688 9.84996 6.69323 9.73179 6.81136Z" fill="var(--fill-0, #696565)"/>
</g>
</svg>
